<?xml version="1.0" standalone="no"?>
<!DOCTYPE svg PUBLIC "-//W3C//DTD SVG 20010904//EN"
 "http://www.w3.org/TR/2001/REC-SVG-20010904/DTD/svg10.dtd">
<svg version="1.0" xmlns="http://www.w3.org/2000/svg"
 width="1000.000000pt" height="1000.000000pt" viewBox="0 0 1000.000000 1000.000000"
 preserveAspectRatio="xMidYMid meet">

<g transform="translate(0.000000,1000.000000) scale(0.100000,-0.100000)"
fill="#000000" stroke="none">
<path d="M4791 9346 c-37 -19 -72 -66 -337 -461 -201 -300 -308 -450 -335
-472 -45 -35 -95 -49 -219 -58 -77 -5 -108 -1 -330 45 -566 117 -745 151 -768
145 -13 -3 -34 -17 -47 -31 -26 -28 -31 -60 -40 -269 -6 -133 -13 -271 -20
-385 -2 -41 -7 -136 -10 -210 -8 -163 -27 -280 -50 -318 -75 -116 -127 -148
-351 -216 -544 -163 -854 -258 -886 -273 -34 -14 -38 -20 -38 -51 0 -19 11
-58 24 -87 166 -350 186 -399 186 -461 0 -99 -70 -164 -178 -164 -23 0 -32 -4
-28 -12 19 -48 28 -90 20 -97 -5 -4 -97 -73 -205 -153 -108 -80 -199 -151
-203 -157 -4 -6 0 -11 11 -11 27 -1 73 -46 84 -83 5 -17 9 -61 9 -96 0 -58 -3
-68 -36 -112 -20 -26 -97 -96 -171 -156 -160 -128 -181 -159 -158 -225 9 -29
30 -56 62 -83 549 -462 773 -658 797 -699 24 -41 26 -53 26 -163 0 -65 -4
-134 -9 -153 -5 -19 -76 -243 -160 -498 -145 -444 -151 -464 -137 -495 17 -42
48 -62 108 -71 l47 -7 -11 28 c-10 29 -11 27 223 738 l53 160 0 155 c1 148 0
158 -26 212 -14 31 -46 78 -70 104 -23 26 -201 181 -395 346 -194 165 -355
309 -359 320 -9 31 10 57 92 123 99 78 185 169 215 225 21 39 24 59 24 145 0
94 -2 104 -31 155 l-31 55 180 135 c99 74 205 151 236 170 68 43 115 110 131
186 19 93 1 165 -96 378 -35 76 -64 146 -64 156 0 9 8 24 18 32 9 8 206 72
437 142 231 70 451 138 488 152 166 63 282 188 315 339 20 90 23 127 46 564
21 401 24 435 42 448 23 17 -15 23 479 -78 215 -44 422 -83 460 -86 87 -7 229
11 301 38 99 37 144 92 427 513 144 214 274 398 288 408 24 18 29 19 55 5 16
-9 61 -48 99 -87 203 -208 341 -238 556 -122 4 1 75 -70 159 -160 124 -133
160 -166 198 -180 58 -22 176 -24 252 -3 74 20 79 19 86 -12 27 -111 124 -192
249 -208 68 -9 160 12 328 74 142 53 178 60 194 39 6 -7 29 -103 52 -213 176
-833 183 -856 287 -966 102 -106 175 -130 564 -184 140 -19 333 -46 428 -59
95 -14 180 -30 188 -37 19 -16 17 -62 -6 -139 -20 -63 -85 -284 -177 -600 -41
-141 -46 -167 -50 -291 -4 -109 -2 -148 12 -195 32 -115 58 -141 464 -465 207
-165 384 -311 395 -324 11 -14 16 -30 12 -42 -4 -11 -62 -72 -131 -137 -141
-132 -180 -195 -193 -303 l-7 -62 -147 -130 c-100 -89 -153 -143 -163 -167
-23 -55 -18 -138 15 -285 l31 -134 -23 -15 c-78 -53 -112 -103 -129 -197 -15
-78 1 -154 66 -334 57 -155 63 -187 43 -207 -15 -15 -14 -15 74 3 77 16 98 32
98 73 0 22 -51 169 -141 404 -69 182 -11 298 148 298 30 0 32 2 23 23 -22 54
-62 267 -53 291 4 13 93 99 196 191 l188 166 -39 29 c-44 32 -62 81 -62 170 0
43 6 59 36 98 35 47 181 184 261 245 68 52 84 115 44 176 -8 13 -202 174 -431
356 -264 212 -424 347 -440 371 -23 36 -25 50 -28 175 -4 131 -3 139 31 250
19 63 60 202 92 309 31 107 79 271 107 364 76 250 68 265 -153 296 -74 10
-219 31 -324 45 -604 83 -625 87 -682 133 -116 93 -127 119 -212 527 -16 77
-48 226 -71 330 -22 105 -50 235 -61 290 -27 135 -35 153 -70 160 -27 6 -183
-44 -434 -140 -59 -23 -80 -26 -133 -21 -101 9 -152 64 -152 164 0 28 -3 32
-22 27 -13 -3 -88 -20 -167 -39 -135 -32 -145 -33 -180 -19 -23 10 -111 92
-255 239 l-219 225 -23 -35 c-26 -38 -62 -53 -151 -66 -54 -7 -60 -5 -112 28
-31 19 -110 88 -176 153 -144 142 -177 159 -244 125z"/>
<path d="M4220 6843 c-73 -8 -267 -56 -362 -89 -271 -94 -545 -250 -664 -376
-165 -175 -386 -722 -512 -1268 -81 -348 -152 -886 -152 -1149 l0 -84 57 -65
c81 -92 250 -242 356 -316 300 -208 674 -330 1060 -343 l168 -6 41 39 c37 36
223 274 230 295 2 6 41 5 103 -3 140 -17 767 -17 905 0 68 9 106 10 108 4 7
-23 168 -231 215 -279 l51 -53 111 0 c381 0 807 129 1105 334 111 77 280 226
368 324 l65 73 -7 152 c-8 183 -46 536 -81 742 -90 534 -257 1053 -458 1425
-78 144 -140 212 -281 305 -334 220 -704 344 -1026 345 l-106 0 -50 -52 c-49
-52 -94 -123 -94 -149 0 -12 -64 -14 -368 -14 l-368 0 -24 55 c-13 30 -46 79
-74 108 l-50 52 -116 -2 c-63 0 -131 -3 -150 -5z m185 -240 c11 -26 21 -50 23
-54 2 -4 -13 -10 -33 -13 -170 -32 -476 -164 -648 -279 -95 -65 -240 -178
-253 -198 -3 -6 25 5 63 24 127 64 278 131 399 177 322 123 652 180 1044 180
409 0 743 -60 1081 -195 108 -43 376 -165 424 -193 29 -17 -29 37 -104 97
-224 178 -456 294 -743 372 -49 13 -88 28 -88 32 0 5 10 28 22 51 13 22 23 42
24 44 2 5 163 -21 244 -40 154 -36 285 -85 463 -174 117 -58 291 -168 324
-203 31 -34 134 -229 196 -372 199 -457 334 -1001 396 -1589 31 -295 31 -291
-9 -337 -18 -21 -68 -69 -109 -106 -279 -253 -676 -422 -1095 -468 -54 -5 -99
-9 -101 -7 -28 29 -163 223 -160 228 3 4 17 11 31 14 50 13 241 103 337 160
54 31 142 91 198 133 99 74 283 242 276 250 -3 2 -53 -28 -113 -67 -471 -306
-1078 -447 -1724 -401 -494 36 -907 167 -1264 401 -60 39 -110 69 -112 67 -6
-6 152 -155 233 -220 148 -118 347 -233 528 -304 39 -15 73 -32 75 -37 2 -5
-31 -58 -75 -118 l-80 -108 -70 6 c-330 26 -697 156 -961 340 -159 110 -316
263 -309 299 2 11 7 61 10 110 10 142 42 406 70 575 94 559 283 1128 493 1483
40 68 56 84 126 131 234 155 483 263 737 320 100 22 132 27 199 34 9 1 23 -17
35 -45z"/>
<path d="M4195 5172 c-66 -32 -141 -105 -174 -170 -22 -42 -51 -151 -50 -187
0 -15 5 -11 19 15 27 52 112 127 178 158 50 24 69 27 157 27 88 0 107 -3 158
-27 68 -32 154 -115 185 -179 21 -44 21 -44 22 -13 1 102 -46 219 -119 297
-72 77 -126 101 -231 105 -77 3 -91 0 -145 -26z"/>
<path d="M5556 5184 c-110 -40 -211 -168 -235 -298 -16 -86 -14 -94 12 -47 32
59 112 137 171 166 178 86 414 11 505 -161 23 -45 26 -36 10 38 -28 132 -107
239 -214 289 -50 24 -72 29 -135 28 -41 0 -93 -7 -114 -15z"/>
<path d="M5367 4486 c-26 -56 -100 -129 -160 -159 -179 -91 -390 -35 -499 132
l-30 46 6 -53 c16 -160 164 -313 319 -329 124 -13 266 67 329 184 33 60 60
154 56 190 -3 26 -3 26 -21 -11z"/>
<path d="M8138 2833 c7 -3 16 -2 19 1 4 3 -2 6 -13 5 -11 0 -14 -3 -6 -6z"/>
<path d="M7427 2640 c-64 -40 -133 -113 -162 -169 -13 -26 -33 -92 -44 -146
-20 -98 -30 -167 -92 -645 -36 -282 -35 -277 -67 -294 l-26 -14 32 -7 c18 -3
45 -4 62 0 39 8 80 58 80 96 0 17 7 76 15 132 8 56 24 174 35 262 11 88 27
207 35 265 7 58 16 130 19 160 4 30 16 100 28 155 22 104 45 144 113 207 39
36 30 35 -28 -2z"/>
<path d="M2526 2559 c51 -56 63 -76 82 -140 11 -41 62 -299 112 -574 50 -275
95 -514 101 -532 12 -39 49 -50 109 -32 37 11 39 14 21 21 -12 4 -26 18 -31
30 -5 13 -46 221 -90 463 -81 446 -111 569 -153 639 -33 54 -119 138 -169 166
l-43 24 61 -65z"/>
<path d="M5780 1586 c-61 -32 -135 -113 -325 -356 -254 -324 -367 -464 -383
-477 -35 -29 -58 -15 -177 112 -64 69 -137 137 -162 151 -47 28 -71 28 -29 0
14 -9 76 -75 138 -147 118 -139 160 -170 218 -161 42 6 71 36 235 246 77 98
205 260 284 360 79 99 155 198 169 219 14 21 38 45 54 53 15 8 28 17 28 19 0
7 1 7 -50 -19z"/>
<path d="M3855 1500 c-22 -4 -100 -28 -174 -53 -73 -26 -143 -47 -154 -47 -19
0 -19 -3 9 -28 23 -21 33 -41 38 -75 9 -60 15 -60 187 -1 154 54 214 66 247
51 12 -6 102 -98 199 -205 110 -121 179 -190 182 -181 10 33 55 78 82 84 17 4
29 11 27 15 -2 5 -88 103 -191 218 -130 144 -198 212 -221 220 -35 13 -166 14
-231 2z"/>
</g>
</svg>
